<?xml version="1.0" standalone="no"?>
<!DOCTYPE svg PUBLIC "-//W3C//DTD SVG 20010904//EN"
 "http://www.w3.org/TR/2001/REC-SVG-20010904/DTD/svg10.dtd">
<svg version="1.0" xmlns="http://www.w3.org/2000/svg"
 width="432.000000pt" height="432.000000pt" viewBox="0 0 432.000000 432.000000"
 preserveAspectRatio="xMidYMid meet">
<metadata>
Created by potrace 1.16, written by Peter Selinger 2001-2019
</metadata>
<g transform="translate(0.000000,432.000000) scale(0.100000,-0.100000)"
fill="#000000" stroke="none">
<path d="M2794 2486 c-72 -32 -104 -141 -58 -202 35 -48 70 -67 119 -67 79 0
140 63 139 142 -1 105 -102 169 -200 127z"/>
<path d="M1694 2466 c-37 -16 -69 -59 -79 -103 -20 -96 80 -189 176 -163 45
12 96 67 104 113 9 44 -19 111 -57 138 -37 27 -103 34 -144 15z"/>
<path d="M2113 2113 c-95 -2 -153 -7 -153 -14 0 -19 38 -84 73 -124 l34 -39
59 31 c130 69 323 65 426 -9 l31 -22 29 35 c30 35 78 120 78 139 0 10 -177 11
-577 3z"/>
</g>
</svg>
